<svg width="35" height="34" viewBox="0 0 35 34" fill="none" xmlns="http://www.w3.org/2000/svg">
<path d="M34.0123 2.3582V32.0226C34.0123 33.0424 33.1806 33.8613 32.1614 33.8613H23.6039V20.9534H27.9651L28.617 15.9212H23.5964V12.7054C23.5964 11.2464 24.001 10.2563 26.1067 10.2563H28.7894V5.75268C28.3248 5.69312 26.7361 5.55169 24.8778 5.55169C21.0111 5.55169 18.3584 7.89655 18.3584 12.2066V15.9212H13.9822V20.9534H18.3584V33.8687H2.2923C1.27319 33.8687 0.441406 33.0424 0.441406 32.0301V2.3582C0.441406 1.34582 1.27319 0.519531 2.2923 0.519531H32.154C33.1806 0.519531 34.0123 1.34582 34.0123 2.3582Z" fill="#F2E205"/>
</svg>
