<svg width="34" height="40" viewBox="0 0 34 40" fill="none" xmlns="http://www.w3.org/2000/svg">
<g clip-path="url(#clip0_340_126)">
<path d="M17.0175 11.461C12.2693 11.461 8.43942 15.2798 8.43942 20.0142C8.43942 24.7486 12.2693 28.5673 17.0175 28.5673C21.7657 28.5673 25.5956 24.7486 25.5956 20.0142C25.5956 15.2798 21.7657 11.461 17.0175 11.461ZM17.0175 25.5749C13.9491 25.5749 11.4406 23.0811 11.4406 20.0142C11.4406 16.9472 13.9417 14.4535 17.0175 14.4535C20.0934 14.4535 22.5944 16.9472 22.5944 20.0142C22.5944 23.0811 20.0859 25.5749 17.0175 25.5749ZM27.9473 11.1111C27.9473 12.2203 27.0515 13.1061 25.9465 13.1061C24.8341 13.1061 23.9457 12.2128 23.9457 11.1111C23.9457 10.0094 24.8416 9.11613 25.9465 9.11613C27.0515 9.11613 27.9473 10.0094 27.9473 11.1111ZM33.6288 13.1359C33.5018 10.4635 32.8897 8.0963 30.9262 6.14596C28.9701 4.19563 26.5961 3.58522 23.9159 3.45123C21.1535 3.2949 12.8741 3.2949 10.1117 3.45123C7.43901 3.57778 5.06491 4.18819 3.10143 6.13852C1.13794 8.08885 0.533218 10.456 0.398835 13.1285C0.242055 15.8827 0.242055 24.1382 0.398835 26.8924C0.525752 29.5648 1.13794 31.932 3.10143 33.8824C5.06491 35.8327 7.43154 36.4431 10.1117 36.5771C12.8741 36.7334 21.1535 36.7334 23.9159 36.5771C26.5961 36.4506 28.9701 35.8402 30.9262 33.8824C32.8822 31.932 33.4944 29.5648 33.6288 26.8924C33.7855 24.1382 33.7855 15.8902 33.6288 13.1359ZM30.0601 29.8477C29.4778 31.3067 28.3505 32.4308 26.8797 33.0189C24.6774 33.8898 19.4514 33.6888 17.0175 33.6888C14.5837 33.6888 9.35023 33.8824 7.15531 33.0189C5.69203 32.4382 4.56471 31.3142 3.97492 29.8477C3.10143 27.6517 3.303 22.4409 3.303 20.0142C3.303 17.5874 3.10889 12.3692 3.97492 10.1806C4.55724 8.72159 5.68457 7.59755 7.15531 7.00947C9.3577 6.13852 14.5837 6.33951 17.0175 6.33951C19.4514 6.33951 24.6848 6.14596 26.8797 7.00947C28.343 7.5901 29.4704 8.71415 30.0601 10.1806C30.9336 12.3766 30.7321 17.5874 30.7321 20.0142C30.7321 22.4409 30.9336 27.6592 30.0601 29.8477Z" fill="#F2E205"/>
</g>
<defs>
<clipPath id="clip0_340_126">
<rect width="33.4464" height="38.1134" fill="white" transform="translate(0.285156 0.964844)"/>
</clipPath>
</defs>
</svg>
