<svg width="32" height="33" viewBox="0 0 32 33" fill="none" xmlns="http://www.w3.org/2000/svg">
<g clip-path="url(#clip0_340_114)">
<path d="M27.9969 13.5922C27.9969 22.8909 16.0414 30.8613 16.0414 30.8613C16.0414 30.8613 4.08594 22.8909 4.08594 13.5922C4.08594 10.4214 5.34553 7.3805 7.58762 5.1384C9.82972 2.89631 12.8706 1.63672 16.0414 1.63672C19.2122 1.63672 22.2532 2.89631 24.4953 5.1384C26.7374 7.3805 27.9969 10.4214 27.9969 13.5922Z" stroke="white" stroke-width="1.32839" stroke-linecap="round" stroke-linejoin="round"/>
<path d="M16.0438 17.5778C18.2447 17.5778 20.0289 15.7935 20.0289 13.5926C20.0289 11.3916 18.2447 9.60742 16.0438 9.60742C13.8428 9.60742 12.0586 11.3916 12.0586 13.5926C12.0586 15.7935 13.8428 17.5778 16.0438 17.5778Z" stroke="white" stroke-width="1.32839" stroke-linecap="round" stroke-linejoin="round"/>
</g>
<defs>
<clipPath id="clip0_340_114">
<rect width="31.8813" height="31.8813" fill="white" transform="translate(0.101562 0.308594)"/>
</clipPath>
</defs>
</svg>
