<svg width="442" height="223" viewBox="0 0 442 223" fill="none" xmlns="http://www.w3.org/2000/svg">
<path d="M29.5329 137.772H0.734375L37.3806 0.275391L60.4195 21.9857L29.5329 137.772ZM101.529 137.772H36.7327L67.6191 21.9857H161.215L153.511 50.9323H88.7141L73.2348 108.825H109.233L113.121 94.3521H98.7212L113.625 65.4055H149.623L130.328 137.772L95.7695 159.482L101.529 137.772ZM202.324 137.772L225.507 50.9323H189.509L166.327 137.772H137.528L168.414 21.9857H262.01L231.123 137.772H202.324ZM267.122 137.772H238.323L274.969 0.275391L298.008 21.9857L267.122 137.772ZM344.302 50.9323L321.118 137.772L286.56 159.482L315.503 50.9323H293.904L308.807 21.9857H373.604L358.701 50.9323H344.302ZM377.204 21.9857H442L434.297 50.9323H398.298L394.411 65.4055H430.409L415.506 94.3521H386.707L382.82 108.825H418.818L411.115 137.772H346.317L377.204 21.9857Z" fill="white"/>
<path d="M352.42 200.189L348.467 214.837L336.683 222.16L342.403 200.189H325.414L336.903 175.777H346.724L340.316 190.425H345.226L349.179 175.777H358.999L355.047 190.425H359.956L357.329 200.189H352.42ZM368.279 205.072L365.652 214.837H355.832L358.459 205.072H368.279ZM368.107 214.837L378.639 175.777H405.644L395.113 214.837H368.107ZM385.832 185.542L380.554 205.072H387.919L393.198 185.542H385.832Z" fill="white"/>
</svg>
