<svg width="41" height="34" viewBox="0 0 41 34" fill="none" xmlns="http://www.w3.org/2000/svg">
<path d="M40.414 4.36911C38.9084 5.03292 37.3114 5.46864 35.6761 5.66179C37.3794 4.64578 38.6873 3.03689 39.3031 1.11991C37.6839 2.07619 35.9124 2.74995 34.065 3.11207C32.5603 1.51663 30.4166 0.519531 28.0439 0.519531C23.4883 0.519531 19.7947 4.1953 19.7947 8.72888C19.7947 9.37241 19.8678 9.9989 20.0083 10.5999C13.1527 10.2574 7.07456 6.98916 3.00597 2.02229C2.29606 3.23478 1.88928 4.64515 1.88928 6.14947C1.88928 8.99774 3.34569 11.5104 5.55895 12.9827C4.24901 12.9419 2.96788 12.5897 1.82253 11.9557C1.82206 11.9901 1.82206 12.0245 1.82206 12.0591C1.82206 16.0366 4.66545 19.3548 8.43893 20.109C7.22422 20.4377 5.95007 20.4859 4.71382 20.2496C5.76344 23.5112 8.8099 25.8846 12.4194 25.951C9.59629 28.1528 6.03939 29.4653 2.17482 29.4653C1.50889 29.4653 0.852384 29.4264 0.207031 29.3506C3.85754 31.6799 8.19345 33.039 12.8518 33.039C28.0247 33.039 36.3217 20.5294 36.3217 9.68096C36.3217 9.32489 36.3138 8.97085 36.2978 8.61884C37.9127 7.45697 39.3066 6.01788 40.414 4.36911Z" fill="#F2E205"/>
</svg>
