<svg width="45" height="31" viewBox="0 0 45 31" fill="none" xmlns="http://www.w3.org/2000/svg">
<path d="M43.745 4.91583C43.2384 3.0116 41.7459 1.51189 39.851 1.00294C36.4162 0.078125 22.6432 0.078125 22.6432 0.078125C22.6432 0.078125 8.87026 0.078125 5.43541 1.00294C3.54044 1.51197 2.04799 3.0116 1.54144 4.91583C0.621094 8.36735 0.621094 15.5686 0.621094 15.5686C0.621094 15.5686 0.621094 22.7699 1.54144 26.2214C2.04799 28.1256 3.54044 29.5629 5.43541 30.0718C8.87026 30.9966 22.6432 30.9966 22.6432 30.9966C22.6432 30.9966 36.4161 30.9966 39.851 30.0718C41.7459 29.5629 43.2384 28.1256 43.745 26.2214C44.6653 22.7699 44.6653 15.5686 44.6653 15.5686C44.6653 15.5686 44.6653 8.36735 43.745 4.91583ZM18.1386 22.1068V9.0304L29.6502 15.5688L18.1386 22.1068Z" fill="#F2E205"/>
</svg>
